HIERARCHY
ROOT Hips
{
	OFFSET 0.000000 0.000000 0.000000 
	CHANNELS 6 Xposition Yposition Zposition Zrotation Yrotation Xrotation
	JOINT LeftUpLeg
	{
		OFFSET 1.363060 -1.794630 0.839290 
		CHANNELS 3 Zrotation Yrotation Xrotation
		JOINT LeftLeg
		{
			OFFSET 2.448110 -6.726130 0.000000 
			CHANNELS 3 Zrotation Yrotation Xrotation
			JOINT LeftFoot
			{
				OFFSET 2.562200 -7.039590 0.000000 
				CHANNELS 3 Zrotation Yrotation Xrotation
				JOINT LeftToeBase
				{
					OFFSET 0.157640 -0.433110 2.322550 
					CHANNELS 3 Zrotation Yrotation Xrotation
					End Site
					{
						OFFSET 0.000000 0.000000 0.000000 
					}
				}
			}
		}
	}
	JOINT RightUpLeg
	{
		OFFSET -1.305520 -1.794630 0.839290 
		CHANNELS 3 Zrotation Yrotation Xrotation
		JOINT RightLeg
		{
			OFFSET -2.542530 -6.985550 0.000000 
			CHANNELS 3 Zrotation Yrotation Xrotation
			JOINT RightFoot
			{
				OFFSET -2.568260 -7.056230 0.000000 
				CHANNELS 3 Zrotation Yrotation Xrotation
				JOINT RightToeBase
				{
					OFFSET -0.164730 -0.452590 2.363150 
					CHANNELS 3 Zrotation Yrotation Xrotation
					End Site
					{
						OFFSET 0.000000 0.000000 0.000000 
					}
				}
			}
		}
	}
	JOINT Spine
	{
		OFFSET 0.028270 2.035590 -0.193380 
		CHANNELS 3 Zrotation Yrotation Xrotation
		JOINT Spine1
		{
			OFFSET 0.056720 2.048850 -0.042750 
			CHANNELS 3 Zrotation Yrotation Xrotation
			JOINT Neck1
			{
				OFFSET -0.054170 1.746240 0.172020 
				CHANNELS 3 Zrotation Yrotation Xrotation
				JOINT Head
				{
					OFFSET 0.104070 1.761360 -0.123970 
					CHANNELS 3 Zrotation Yrotation Xrotation
					End Site
					{
						OFFSET 0.000000 0.000000 0.000000 
					}
				}
			}
			JOINT LeftArm
			{
				OFFSET 3.362410 1.200890 -0.311210 
				CHANNELS 3 Zrotation Yrotation Xrotation
				JOINT LeftForeArm
				{
					OFFSET 4.983000 -0.000000 -0.000000 
					CHANNELS 3 Zrotation Yrotation Xrotation
					JOINT LeftHand
					{
						OFFSET 3.483560 -0.000000 -0.000000 
						CHANNELS 3 Zrotation Yrotation Xrotation
						JOINT LeftHandIndex1
						{
							OFFSET 0.715260 -0.000000 -0.000000 
							CHANNELS 3 Zrotation Yrotation Xrotation
							End Site
							{
								OFFSET 0.000000 0.000000 0.000000 
							}
						}
					}
				}
			}
			JOINT RightArm
			{
				OFFSET -3.136600 1.374050 -0.404650 
				CHANNELS 3 Zrotation Yrotation Xrotation
				JOINT RightForeArm
				{
					OFFSET -5.241900 -0.000000 -0.000000 
					CHANNELS 3 Zrotation Yrotation Xrotation
					JOINT RightHand
					{
						OFFSET -3.444170 -0.000000 -0.000000 
						CHANNELS 3 Zrotation Yrotation Xrotation
						JOINT RightHandIndex1
						{
							OFFSET -0.622530 -0.000000 -0.000000 
							CHANNELS 3 Zrotation Yrotation Xrotation
							End Site
							{
								OFFSET 0.000000 0.000000 0.000000 
							}
						}
					}
				}
			}
		}
	}
}
MOTION
Frames: 12
Frame Time: 0.041667
-1.451779 18.315488 6.046607 -2.803655 15.173941 5.649261 -3.423186 -25.127907 -7.789511 0.644085 7.953784 23.260429 -1.898065 11.830204 -16.022186 8.770900 -16.658000 -55.294400 2.526313 2.086097 -2.043513 0.138596 0.733601 1.485396 0.298665 -1.019821 6.254358 0.000000 0.000000 0.000000 -39.862012 3.830364 6.215900 8.068712 2.693576 -11.577479 10.097359 2.384833 30.231308 2.225000 3.394300 11.413200 -54.079157 1.199890 -55.775052 24.263614 -32.087161 -6.825464 0.549045 1.117669 -19.653529 -7.125000 0.000000 0.000000 67.561332 69.450195 94.107380 -139.956833 43.366574 -99.676237 -0.394787 -0.115393 -44.560681 7.125000 0.000000 0.000000 
-1.451190 18.315193 6.047883 -2.681038 14.857051 5.764579 -3.591628 -25.132910 -7.654473 0.619541 7.946270 23.202608 -1.935785 12.041263 -16.255182 8.741900 -16.638700 -55.193200 2.532516 2.083820 -2.054542 0.138817 0.727253 1.484154 0.297203 -1.025307 6.250882 0.000000 0.000000 0.000000 -40.072129 3.565060 5.501206 8.075913 2.675807 -11.598430 10.328077 2.171117 30.097072 2.266600 3.311800 11.375800 -52.790270 -0.407720 -56.609216 24.208435 -32.093256 -6.785570 0.551161 1.101232 -19.748291 -7.125000 0.000000 0.000000 66.616801 68.905094 92.739310 -140.629373 43.068998 -100.258669 -0.400231 -0.100721 -44.454768 7.125000 0.000000 0.000000 
-1.449815 18.316077 6.049160 -2.616726 14.589786 5.883337 -3.682965 -25.196184 -7.547643 0.595814 7.936818 23.140874 -1.960573 12.209365 -16.516597 8.723500 -16.626500 -55.129100 2.537876 2.081611 -2.064510 0.139105 0.721410 1.482966 0.295881 -1.030363 6.247671 0.000000 0.000000 0.000000 -40.228825 3.278922 4.833433 8.103978 2.640941 -11.569319 10.454589 1.967328 30.043197 2.272500 3.232800 11.374100 -51.545871 -1.992545 -57.353619 24.142108 -32.091133 -6.748169 0.559356 1.081147 -19.997155 -7.125000 0.000000 0.000000 65.883910 68.457785 91.639074 -141.219876 42.803346 -100.764931 -0.396843 -0.087249 -44.308006 7.125000 0.000000 0.000000 
-1.449619 18.317451 6.050044 -2.585606 14.377263 6.018494 -3.716603 -25.232339 -7.513635 0.576832 7.929104 23.086083 -1.985415 12.354069 -16.693144 8.710600 -16.617900 -55.083900 2.542519 2.078969 -2.074121 0.139621 0.715426 1.481554 0.294542 -1.035594 6.244380 0.000000 0.000000 0.000000 -40.300603 3.035943 4.252502 8.203550 2.628056 -11.545155 10.502813 1.730468 30.141179 2.267600 3.133100 11.424000 -50.397778 -3.761400 -58.150368 24.078107 -32.106170 -6.720749 0.570094 1.059562 -20.499616 -7.125000 0.000000 0.000000 64.922705 68.014331 90.341654 -141.802755 42.548156 -101.257745 -0.396072 -0.074709 -44.257297 7.125000 0.000000 0.000000 
-1.446182 18.318630 6.050436 -2.525914 14.146464 6.159048 -3.808452 -25.279251 -7.439136 0.553318 7.917716 23.019725 -2.022453 12.555704 -16.905095 8.683400 -16.599600 -54.988800 2.548744 2.075852 -2.085884 0.140100 0.708211 1.479828 0.292869 -1.041966 6.240536 0.000000 0.000000 0.000000 -40.391932 2.807682 3.613641 8.260724 2.626705 -11.528727 10.763151 1.466377 30.172966 2.335400 3.032700 11.435900 -49.337606 -5.714424 -59.271564 24.095606 -32.213100 -6.732140 0.574249 1.039768 -21.078309 -7.125000 0.000000 0.000000 63.840838 67.508206 88.845295 -142.431162 42.271620 -101.776509 -0.406979 -0.063314 -44.302423 7.125000 0.000000 0.000000 
-1.441272 18.319513 6.049160 -2.420632 13.897048 6.319458 -3.953807 -25.277553 -7.371923 0.525964 7.899935 22.931163 -2.053048 12.730839 -17.097726 8.657800 -16.582400 -54.898900 2.556416 2.072615 -2.099431 0.140454 0.700171 1.477988 0.290902 -1.049075 6.236311 0.000000 0.000000 0.000000 -40.525300 2.536279 2.860092 8.298353 2.615799 -11.487399 11.223287 1.208024 30.193357 2.466100 2.959200 11.430300 -48.329580 -7.699759 -60.650073 24.168214 -32.372835 -6.762696 0.571860 1.022152 -21.552660 -7.125000 0.000000 0.000000 62.768773 67.018055 87.314868 -143.039166 41.994798 -102.277188 -0.411340 -0.058739 -44.375382 7.125000 0.000000 0.000000 
-1.438326 18.319513 6.047687 -2.328512 13.674909 6.469919 -4.073043 -25.272817 -7.309670 0.500033 7.877795 22.835230 -2.067445 12.839632 -17.274725 8.637800 -16.568900 -54.828900 2.563197 2.069222 -2.112344 0.140978 0.692311 1.476089 0.288978 -1.056031 6.232129 0.000000 0.000000 0.000000 -40.592757 2.268545 2.165424 8.428713 2.609592 -11.433689 11.648003 0.953847 30.346220 2.597800 2.890400 11.465200 -47.470679 -9.642801 -62.109059 24.293036 -32.584929 -6.813037 0.564910 1.006968 -22.015162 -7.125000 0.000000 0.000000 61.554623 66.620409 85.779794 -143.584185 41.752770 -102.730053 -0.394010 -0.052923 -44.435666 7.125000 0.000000 0.000000 
-1.433417 18.319415 6.046509 -2.245578 13.492872 6.630346 -4.180941 -25.276022 -7.258122 0.476507 7.857158 22.746158 -2.065874 12.890730 -17.455336 8.597200 -16.541400 -54.686300 2.571146 2.065144 -2.126929 0.141567 0.683284 1.473737 0.286700 -1.064140 6.227472 0.000000 0.000000 0.000000 -40.655996 2.024460 1.466538 8.565588 2.614398 -11.351246 11.745671 0.677921 30.472352 2.606400 2.773400 11.481500 -46.661871 -11.518135 -63.391052 24.418954 -32.795933 -6.867783 0.558643 0.995406 -22.910149 -7.125000 0.000000 0.000000 60.246835 66.192090 84.163983 -144.038526 41.557890 -103.106210 -0.378369 -0.053501 -44.555151 7.125000 0.000000 0.000000 
-1.424187 18.322066 6.044839 -2.171328 13.341288 6.902701 -4.274019 -25.272581 -7.304271 0.452642 7.851966 22.673459 -2.070028 12.959535 -17.606388 8.555800 -16.513200 -54.540900 2.592035 2.058152 -2.154616 0.141246 0.666642 1.469095 0.281938 -1.079777 6.220162 0.000000 0.000000 0.000000 -41.040824 1.884046 0.390657 8.284178 2.672723 -11.220773 11.407498 0.115293 30.309803 2.313900 2.515200 11.422400 -45.448471 -13.741402 -64.147569 24.618238 -33.082378 -6.968894 0.550586 0.987619 -24.521048 -7.125000 0.000000 0.000000 58.838663 65.284246 81.813012 -144.309931 41.418761 -103.363557 -0.375520 -0.063849 -44.592942 7.125000 0.000000 0.000000 
-1.414367 18.325601 6.041697 -2.171392 13.225135 7.226565 -4.279326 -25.239095 -7.455678 0.431583 7.863790 22.626697 -2.087593 13.066348 -17.711420 8.554900 -16.512600 -54.537800 2.621529 2.049306 -2.189950 0.140178 0.645375 1.462937 0.275652 -1.100144 6.211524 0.000000 0.000000 0.000000 -41.610471 1.842563 -0.882480 7.624441 2.772802 -11.108073 11.007551 -0.744301 30.032573 1.883200 2.157600 11.355600 -43.940119 -16.417713 -64.684871 25.009317 -33.571866 -7.174522 0.535591 0.982041 -26.748324 -7.125000 0.000000 0.000000 57.581380 63.820690 79.193376 -144.502244 41.285733 -103.593014 -0.353335 -0.065178 -44.106894 7.125000 0.000000 0.000000 
-1.404352 18.326485 6.037475 -2.194285 13.142266 7.381119 -4.259215 -25.028651 -7.643796 0.426242 7.875826 22.611553 -2.088869 13.064602 -17.657630 8.600500 -16.543700 -54.698000 2.626654 2.047108 -2.201322 0.140600 0.639061 1.461832 0.274191 -1.105462 6.207862 0.000000 0.000000 0.000000 -41.551306 1.391470 -1.743601 7.700227 2.686390 -10.968964 11.184978 -1.103458 30.475065 1.930800 2.026900 11.478900 -43.338871 -18.133965 -65.969032 25.741826 -34.435326 -7.564711 0.511120 0.980693 -29.445572 -7.125000 0.000000 0.000000 57.235425 63.153140 78.750209 -144.979475 41.033223 -103.981672 -0.324138 -0.050561 -43.465190 7.125000 0.000000 0.000000 
-1.393943 18.326682 6.032271 -2.170690 13.043626 7.373842 -4.298777 -24.735561 -7.786834 0.433057 7.878769 22.612655 -2.064244 12.941608 -17.523194 8.611000 -16.550800 -54.734800 2.604651 2.051621 -2.188490 0.143016 0.647965 1.466023 0.277672 -1.095201 6.208751 0.000000 0.000000 0.000000 -40.730733 0.496171 -2.179056 8.715020 2.399196 -10.780009 11.564395 -0.787456 31.705162 2.389900 2.140300 11.802200 -43.897856 -18.617027 -67.747436 26.921849 -35.763985 -8.204300 0.475834 0.980892 -32.252210 -7.125000 0.000000 0.000000 57.540615 63.669370 80.349919 -145.743364 40.689583 -104.497431 -0.314687 -0.018030 -43.265887 7.125000 0.000000 0.000000 
